<?xml version="1.0" standalone="no"?>
<!DOCTYPE svg PUBLIC "-//W3C//DTD SVG 20010904//EN"
 "http://www.w3.org/TR/2001/REC-SVG-20010904/DTD/svg10.dtd">
<svg version="1.0" xmlns="http://www.w3.org/2000/svg"
 width="206.000000pt" height="206.000000pt" viewBox="0 0 206.000000 206.000000"
 preserveAspectRatio="xMidYMid meet">
<metadata>
Created by potrace 1.14, written by Peter Selinger 2001-2017
</metadata>
<g transform="translate(0.000000,206.000000) scale(0.100000,-0.100000)"
fill="#000000" stroke="none">
<path d="M235 2046 c-95 -30 -161 -87 -204 -176 l-26 -55 0 -785 0 -785 27
-58 c32 -69 79 -117 151 -154 l52 -28 795 0 795 0 50 24 c63 32 127 96 157
158 l23 48 3 770 c2 575 -1 781 -10 815 -28 108 -117 197 -222 224 -77 20
-1528 22 -1591 2z"/>
</g>
</svg>
